<?xml version="1.0" encoding="UTF-8"?><svg id="Layer_1" xmlns="http://www.w3.org/2000/svg" viewBox="0 0 289 55"><defs><style>.cls-1{fill:#c69215;}.cls-2{fill:#0e284b;}</style></defs><g><path class="cls-2" d="M34.93,28.32c0,8.51-1.24,14.98-14.17,14.98s-14.85-6.21-14.85-14.98V7.62C5.91,2.96,3.92,2.53,.5,2.53V1.29H16.84v1.24c-3.35,0-5.41,.43-5.41,5.1V28.32c0,6.34,1.49,12.55,9.57,12.55,8.96,0,10.38-5.16,10.38-12.55V7.62c0-4.66-2.05-5.1-5.4-5.1V1.29h14.35v1.24c-3.42,0-5.41,.43-5.41,5.1V28.32Z"/><path class="cls-2" d="M69.3,41.62c-3.05,1.12-6.53,1.68-11.12,1.68-12.43,0-18.4-9.45-18.4-22.68,0-11.5,3.72-19.95,17.03-19.95,4.97,0,9.2,.99,11.94,1.74l.56,9.76h-1.55c-.81-3.48-3.29-9.08-11.01-9.08-10,0-10.81,10.63-10.81,17.03,0,8.02,1.74,20.39,15.35,20.39,4.16,0,6.4-.93,8.02-1.55v2.67Z"/><path class="cls-2" d="M102.68,10.23c-.56-3.29-3.05-7.15-9.7-7.15-4.17,0-7.83,2.67-7.83,6.78,0,5.53,7.4,7.33,12.81,10.5,4.91,2.86,8.2,5.41,8.2,11.31,0,7.89-6.84,11.62-15.35,11.62-4.22,0-9.13-.93-10.69-1.18l-.44-8.76h1.56c.49,3.29,3.42,7.15,10.07,7.15,5.47,0,9.01-3.54,9.01-7.83,0-6.71-10.32-8.76-16.1-13.17-2.73-2.11-4.04-4.35-4.04-8.33,0-7.46,6.16-10.5,13.98-10.5,4.17,0,6.84,.5,9.64,1.05l.43,8.51h-1.55Z"/><path class="cls-2" d="M131.56,42.73c-.66,.17-2.05,.5-4.03,.5-3.21,0-4.15-1.66-4.15-4.03h-.11c-1.7,2.49-4.08,4.03-7.85,4.03s-6.63-2.65-6.63-6.25c0-8.02,10.4-8.02,14.59-8.41v-2.1c0-3.87-.06-7.96-4.7-7.96-3.43,0-3.87,1.44-3.87,3.21,0,2.26-1.66,2.87-2.6,2.87-1.49,0-2.65-1-2.65-2.49,0-3.59,5.36-5.42,9.18-5.42,7.57,0,8.95,3.65,8.95,8.79v13.71c0,1.94,.66,2.6,2.38,2.6,.49,0,.99-.11,1.49-.22v1.16Zm-8.18-12.33c-2.6,.06-9.68,.56-9.68,5.7,0,2.87,1.89,4.81,3.77,4.81,3.59,0,5.91-3.48,5.91-7.24v-3.26Z"/><path class="cls-2" d="M132.78,41.73c2.32,0,4.2-.49,4.2-4.09v-15.09c0-3.32-2.6-3.48-4.2-3.59v-.94l8.51-1.33v7.3h.11c.77-2.05,3.26-7.3,8.73-7.3,5.86,0,6.42,3.2,6.42,8.35v12.61c0,3.59,1.88,4.09,4.2,4.09v.94h-12.71v-.94c2.32,0,4.2-.49,4.2-4.09v-11.39c0-4.76-.05-6.91-3.71-6.91-3.25,0-7.24,6.25-7.24,11.5v6.8c0,3.59,1.87,4.09,4.2,4.09v.94h-12.71v-.94Z"/><path class="cls-2" d="M167.07,41.43c3.36,0,5.41-.44,5.41-5.09V7.62c0-4.66-2.05-5.1-5.41-5.1V1.29h14.55c10.31,0,21.25,2.24,21.25,20.76s-11.49,20.64-21.25,20.64h-14.55v-1.25Zm10.94-6.4c0,4.54,.5,5.22,3.61,5.22,10.69,0,15.1-5.72,15.1-18.21,0-11.44-3.29-18.33-15.1-18.33-3.11,0-3.61,.37-3.61,5.22v26.1Z"/><path class="cls-2" d="M205.13,41.73c2.33,0,4.21-.49,4.21-4.09v-15.09c0-3.32-2.54-3.48-4.21-3.59v-.94l8.52-1.33v20.95c0,3.59,1.88,4.09,4.2,4.09v.94h-12.72v-.94Zm3.05-33.28c0-1.77,1.38-3.15,3.15-3.15s3.15,1.38,3.15,3.15-1.38,3.15-3.15,3.15-3.15-1.38-3.15-3.15Z"/><path class="cls-2" d="M237.86,42.23c-1.33,.5-3.21,1-6.58,1-8.57,0-13.37-4.7-13.37-13.99,0-8.07,3.26-12.55,11.22-12.55,4.97,0,9.46,2.76,9.46,9.17v1.22h-16.09c0,4.64,2.26,14.1,11.5,14.1,1.27,0,2.76-.17,3.87-.72v1.77Zm-4.2-16.97c0-2.93-1-6.74-5.25-6.74s-5.92,4.7-5.92,6.74h11.17Z"/><path class="cls-2" d="M256.55,38.25c2.65,0,8.79,.11,8.79,6.25s-6.19,9.84-13.55,9.84c-5.42,0-11.05-2.05-11.05-7.02,0-3.43,2.54-4.92,4.31-5.81-.94-.55-2.38-1.6-2.38-3.92,0-2.05,1.77-4.15,2.38-4.81-1.28-1.05-3.21-2.71-3.21-7.41,0-7.13,5.19-8.68,10.44-8.68,2.55,0,3.93,.44,5.7,1.38,.88-2.1,2.2-5.91,5.58-5.91,1.55,0,2.66,.99,2.66,2.65,0,1.5-.94,2.49-2.6,2.49-1.44,0-1.77-.78-2.49-.78-1.21,0-1.71,1.61-1.99,2.49,.66,.72,2.48,2.77,2.48,6.64,0,5.58-3.48,8.73-10.11,8.73-2.21,0-3.82-.28-5.03-.83-.34,.44-1,1.27-1,2.49,0,2.21,2.76,2.21,4.53,2.21h6.53Zm-9.57,3.92c-1.11,.83-2.65,1.77-2.65,4.26,0,3.26,2.92,6.08,7.73,6.08s9.68-2.6,9.68-6.58c0-2.82-2.32-3.76-5.09-3.76h-9.67Zm4.81-9.62c4.65,0,5.25-3.65,5.25-6.58,0-4.14-1.44-7.46-5.42-7.46-4.37,0-5.19,3.21-5.19,6.41,0,4.2,1.38,7.63,5.36,7.63Z"/><path class="cls-2" d="M265.4,29.96c0-8.3,4.47-13.27,11.55-13.27s11.56,4.97,11.56,13.27-4.47,13.27-11.56,13.27-11.55-4.97-11.55-13.27Zm11.55,11.44c5.53,0,6.64-6.85,6.64-11.44s-1.11-11.45-6.64-11.45-6.63,6.85-6.63,11.45,1.1,11.44,6.63,11.44Z"/></g><g id="line"><path class="cls-1" d="M237.92,52.2H.5v1.4H239.25c-.51-.43-.96-.9-1.34-1.4Z"/><path class="cls-1" d="M288.06,52.2h-21.84c-.49,.51-1.05,.97-1.65,1.4h23.48v-1.4Z"/></g></svg>